<svg class="animated" id="freepik_stories-learning-languages" xmlns="http://www.w3.org/2000/svg" viewBox="0 0 500 500" version="1.1" xmlns:xlink="http://www.w3.org/1999/xlink" xmlns:svgjs="http://svgjs.com/svgjs"><style>svg#freepik_stories-learning-languages:not(.animated) .animable {opacity: 0;}svg#freepik_stories-learning-languages.animated #freepik--speech-bubble-2--inject-8 {animation: 1.5s Infinite  linear floating;animation-delay: 0s;}svg#freepik_stories-learning-languages.animated #freepik--speech-bubble-1--inject-8 {animation: 1.5s Infinite  linear floating;animation-delay: 0s;}            @keyframes floating {                0% {                    opacity: 1;                    transform: translateY(0px);                }                50% {                    transform: translateY(-10px);                }                100% {                    opacity: 1;                    transform: translateY(0px);                }            }        </style><g id="freepik--background-simple--inject-8" class="animable" style="transform-origin: 248.91px 197.985px;"><path d="M364,99.74a40.65,40.65,0,0,1,17-7.16c32.41-5.25,49.14,31.24,51.16,58,3.26,43.32-14.74,87.24-45.75,117.66s-74.13,47.45-117.54,49S182,305.43,145.52,281.89c-40.7-26.25-86.77-70.18-79.47-123.43,5.4-39.39,38.76-73.53,78.25-79.06a80.82,80.82,0,0,1,24.45.29C200.31,84.91,223,108.25,248.82,125c17.64,11.44,40.2,20.79,61.5,16.08C333.73,135.92,345.48,112.66,364,99.74Z" style="fill: rgb(255, 162, 52); transform-origin: 248.91px 197.985px;" id="eltmpw30eu9n" class="animable"></path><g id="elvr6gm16h42"><path d="M364,99.74a40.65,40.65,0,0,1,17-7.16c32.41-5.25,49.14,31.24,51.16,58,3.26,43.32-14.74,87.24-45.75,117.66s-74.13,47.45-117.54,49S182,305.43,145.52,281.89c-40.7-26.25-86.77-70.18-79.47-123.43,5.4-39.39,38.76-73.53,78.25-79.06a80.82,80.82,0,0,1,24.45.29C200.31,84.91,223,108.25,248.82,125c17.64,11.44,40.2,20.79,61.5,16.08C333.73,135.92,345.48,112.66,364,99.74Z" style="fill: rgb(255, 255, 255); opacity: 0.9; transform-origin: 248.91px 197.985px;" class="animable"></path></g></g><g id="freepik--Shadow--inject-8" class="animable" style="transform-origin: 250px 416.24px;"><ellipse id="freepik--path--inject-8" cx="250" cy="416.24" rx="193.89" ry="11.32" style="fill: rgb(245, 245, 245); transform-origin: 250px 416.24px;" class="animable"></ellipse></g><g id="freepik--Bookshelf--inject-8" class="animable" style="transform-origin: 154.51px 304.47px;"><g id="el3p8weivkbcb"><rect x="66.45" y="194.07" width="176.02" height="220.8" style="fill: rgb(255, 162, 52); transform-origin: 154.46px 304.47px; transform: rotate(180deg);" class="animable"></rect></g><g id="eld81a5wosmvs"><rect x="66.45" y="194.07" width="176.12" height="220.23" style="fill: rgb(255, 255, 255); opacity: 0.5; transform-origin: 154.51px 304.185px;" class="animable"></rect></g><g id="elywgd54qjm8r"><rect x="97.68" y="201" width="139.59" height="40.67" style="opacity: 0.2; isolation: isolate; transform-origin: 167.475px 221.335px;" class="animable"></rect></g><g id="elz9fuuld1a9c"><rect x="97.68" y="207.59" width="7.93" height="34.09" style="fill: rgb(255, 255, 255); opacity: 0.5; transform-origin: 101.645px 224.635px;" class="animable"></rect></g><g id="elaj3r7c7bjg"><rect x="136.02" y="207.59" width="7.93" height="34.09" style="fill: rgb(255, 255, 255); opacity: 0.5; transform-origin: 139.985px 224.635px;" class="animable"></rect></g><g id="el42i1a2g91rb"><rect x="182.5" y="207.16" width="7.93" height="34.09" style="fill: rgb(255, 255, 255); opacity: 0.5; transform-origin: 186.465px 224.205px; transform: rotate(-9.78deg);" class="animable"></rect></g><g id="eljrjqv0fuym"><rect x="107.5" y="212.08" width="7.93" height="29.6" style="fill: rgb(255, 255, 255); opacity: 0.5; transform-origin: 111.465px 226.88px;" class="animable"></rect></g><g id="elzcpiu6qmsul"><rect x="125.73" y="212.08" width="7.93" height="29.6" style="fill: rgb(255, 255, 255); opacity: 0.5; transform-origin: 129.695px 226.88px;" class="animable"></rect></g><g id="el0w0qhs9q1yjh"><rect x="171.74" y="212.08" width="7.93" height="29.6" style="fill: rgb(255, 255, 255); opacity: 0.5; transform-origin: 175.705px 226.88px;" class="animable"></rect></g><g id="el4eiwhwq76uf"><rect x="149.74" y="211.57" width="7.93" height="29.6" style="fill: rgb(255, 255, 255); opacity: 0.5; transform-origin: 153.705px 226.37px; transform: rotate(-12.53deg);" class="animable"></rect></g><g id="el4etzz52msve"><rect x="118.33" y="205.9" width="3.96" height="35.78" style="fill: rgb(255, 255, 255); opacity: 0.5; transform-origin: 120.31px 223.79px;" class="animable"></rect></g><g id="elex01fkqd3t"><rect x="165.49" y="205.9" width="3.96" height="35.78" style="fill: rgb(255, 255, 255); opacity: 0.5; transform-origin: 167.47px 223.79px;" class="animable"></rect></g><g id="eluyuyye4wk3"><rect x="97.68" y="248.12" width="139.59" height="40.67" style="opacity: 0.2; isolation: isolate; transform-origin: 167.475px 268.455px; transform: rotate(180deg);" class="animable"></rect></g><g id="el5nfohobo3xo"><rect x="229.34" y="254.7" width="7.93" height="34.09" style="fill: rgb(255, 255, 255); opacity: 0.5; transform-origin: 233.305px 271.745px; transform: rotate(180deg);" class="animable"></rect></g><g id="eljlj6sp1egnr"><rect x="191" y="254.7" width="7.93" height="34.09" style="fill: rgb(255, 255, 255); opacity: 0.5; transform-origin: 194.965px 271.745px; transform: rotate(180deg);" class="animable"></rect></g><g id="el1b6ahmj6kyl"><rect x="144.52" y="254.28" width="7.93" height="34.09" style="fill: rgb(255, 255, 255); opacity: 0.5; transform-origin: 148.485px 271.325px; transform: rotate(-170.22deg);" class="animable"></rect></g><g id="elpuyfuiwg1v8"><rect x="219.51" y="259.19" width="7.93" height="29.6" style="fill: rgb(255, 255, 255); opacity: 0.5; transform-origin: 223.475px 273.99px; transform: rotate(180deg);" class="animable"></rect></g><g id="el01do5z50yxqc"><rect x="201.29" y="259.19" width="7.93" height="29.6" style="fill: rgb(255, 255, 255); opacity: 0.5; transform-origin: 205.255px 273.99px; transform: rotate(180deg);" class="animable"></rect></g><g id="elokidqf2snbd"><rect x="155.28" y="259.19" width="7.93" height="29.6" style="fill: rgb(255, 255, 255); opacity: 0.5; transform-origin: 159.245px 273.99px; transform: rotate(180deg);" class="animable"></rect></g><g id="elf2k0todf4c"><rect x="177.28" y="258.69" width="7.93" height="29.6" style="fill: rgb(255, 255, 255); opacity: 0.5; transform-origin: 181.245px 273.49px; transform: rotate(-167.47deg);" class="animable"></rect></g><g id="elphyrayhljp"><rect x="212.66" y="253.01" width="3.96" height="35.78" style="fill: rgb(255, 255, 255); opacity: 0.5; transform-origin: 214.64px 270.9px; transform: rotate(180deg);" class="animable"></rect></g><g id="elxjrcgdbvskr"><rect x="165.49" y="253.01" width="3.96" height="35.78" style="fill: rgb(255, 255, 255); opacity: 0.5; transform-origin: 167.47px 270.9px; transform: rotate(180deg);" class="animable"></rect></g><g id="eli40pg2yx0a"><rect x="97.68" y="254.7" width="7.93" height="34.09" style="fill: rgb(255, 255, 255); opacity: 0.5; transform-origin: 101.645px 271.745px;" class="animable"></rect></g><g id="el3baovhw7np5"><rect x="107.5" y="259.19" width="7.93" height="29.6" style="fill: rgb(255, 255, 255); opacity: 0.5; transform-origin: 111.465px 273.99px;" class="animable"></rect></g><g id="elq0oaeeolm2a"><rect x="125.73" y="259.19" width="7.93" height="29.6" style="fill: rgb(255, 255, 255); opacity: 0.5; transform-origin: 129.695px 273.99px;" class="animable"></rect></g><g id="elq43fzdh20qc"><rect x="118.33" y="253.01" width="3.96" height="35.78" style="fill: rgb(255, 255, 255); opacity: 0.5; transform-origin: 120.31px 270.9px;" class="animable"></rect></g><g id="elwmx26yhasd"><rect x="97.68" y="295.23" width="139.59" height="40.67" style="opacity: 0.2; isolation: isolate; transform-origin: 167.475px 315.565px;" class="animable"></rect></g><g id="eleayd5x68gb6"><g style="opacity: 0.5; transform-origin: 166.111px 318.015px;" class="animable"><rect x="177.8" y="301.82" width="7.93" height="34.09" style="fill: rgb(255, 255, 255); transform-origin: 181.765px 318.865px;" id="elg2ufiixedf9" class="animable"></rect><g id="eljnkk75osgns"><rect x="224.28" y="301.39" width="7.93" height="34.09" style="fill: rgb(255, 255, 255); transform-origin: 228.245px 318.435px; transform: rotate(-9.78deg);" class="animable"></rect></g><rect x="149.28" y="306.31" width="7.93" height="29.6" style="fill: rgb(255, 255, 255); transform-origin: 153.245px 321.11px;" id="elqu3m8cxlzkf" class="animable"></rect><rect x="167.51" y="306.31" width="7.93" height="29.6" style="fill: rgb(255, 255, 255); transform-origin: 171.475px 321.11px;" id="elpprlisx32o" class="animable"></rect><rect x="213.51" y="306.31" width="7.93" height="29.6" style="fill: rgb(255, 255, 255); transform-origin: 217.475px 321.11px;" id="elm7t984yyvvd" class="animable"></rect><g id="elgpr7h63nr74"><rect x="191.52" y="305.8" width="7.93" height="29.6" style="fill: rgb(255, 255, 255); transform-origin: 195.485px 320.6px; transform: rotate(-12.53deg);" class="animable"></rect></g><rect x="160.1" y="300.12" width="3.96" height="35.78" style="fill: rgb(255, 255, 255); transform-origin: 162.08px 318.01px;" id="elzon40k56fd9" class="animable"></rect><rect x="207.27" y="300.12" width="3.96" height="35.78" style="fill: rgb(255, 255, 255); transform-origin: 209.25px 318.01px;" id="el44rl68xbzrj" class="animable"></rect><g id="elh0sr9k22i3d"><rect x="133.05" y="301.39" width="7.93" height="34.09" style="fill: rgb(255, 255, 255); transform-origin: 137.015px 318.435px; transform: rotate(-9.78deg);" class="animable"></rect></g><rect x="122.28" y="306.31" width="7.93" height="29.6" style="fill: rgb(255, 255, 255); transform-origin: 126.245px 321.11px;" id="eluatpmote3bi" class="animable"></rect><g id="elalk7inh75k5"><rect x="100.29" y="305.8" width="7.93" height="29.6" style="fill: rgb(255, 255, 255); transform-origin: 104.255px 320.6px; transform: rotate(-12.53deg);" class="animable"></rect></g><rect x="116.04" y="300.12" width="3.96" height="35.78" style="fill: rgb(255, 255, 255); transform-origin: 118.02px 318.01px;" id="elfzday4y6lgn" class="animable"></rect></g></g><g id="els0vpa2o3czl"><rect x="66.45" y="194.07" width="25.91" height="220.8" style="opacity: 0.2; isolation: isolate; transform-origin: 79.405px 304.47px; transform: rotate(180deg);" class="animable"></rect></g><g id="eljpsfyscnz6"><rect x="170.16" y="343.12" width="66.07" height="62.57" style="opacity: 0.1; isolation: isolate; transform-origin: 203.195px 374.405px;" class="animable"></rect></g><g id="eljrcbcfcij7"><rect x="97.68" y="343.12" width="67.21" height="62.57" style="opacity: 0.1; isolation: isolate; transform-origin: 131.285px 374.405px;" class="animable"></rect></g><g id="elky4kn7kmyxr"><path d="M160.87,371.23a3.18,3.18,0,1,1-3.18-3.18A3.18,3.18,0,0,1,160.87,371.23Z" style="opacity: 0.2; isolation: isolate; transform-origin: 157.69px 371.23px;" class="animable"></path></g><g id="el3oicp0xnklt"><path d="M179.87,371.23a3.18,3.18,0,1,1-3.18-3.18A3.18,3.18,0,0,1,179.87,371.23Z" style="opacity: 0.2; isolation: isolate; transform-origin: 176.69px 371.23px;" class="animable"></path></g></g><g id="freepik--Table--inject-8" class="animable" style="transform-origin: 329.345px 301.305px;"><polygon points="359.04 215.35 346.19 215.35 349.61 252.14 329.29 255.19 329.29 257.75 372.09 257.75 372.09 255.19 363.32 252.14 359.04 215.35" style="fill: rgb(38, 50, 56); transform-origin: 350.69px 236.55px;" id="elps0qcwsepwn" class="animable"></polygon><path d="M309.15,238.7a4,4,0,0,0,4,4.47H391a5,5,0,0,0,4.87-4.47l4.62-49.8a4.08,4.08,0,0,0-.1-1.45,4,4,0,0,0-3.93-3H318.64a5,5,0,0,0-4.87,4.47Z" style="fill: rgb(38, 50, 56); transform-origin: 354.818px 213.81px;" id="elqho2tgdt52g" class="animable"></path><path d="M391,240.67a2.49,2.49,0,0,0,2.38-2.2l4.62-49.8a1.71,1.71,0,0,0,0-.61,1.46,1.46,0,0,0-1.5-1.13H318.64a2.48,2.48,0,0,0-2.37,2.2l-4.62,49.8a1.61,1.61,0,0,0,.38,1.26,1.5,1.5,0,0,0,1.16.48Z" style="fill: rgb(255, 162, 52); transform-origin: 354.832px 213.8px;" id="elu13p93hxrne" class="animable"></path><g id="elkw9um8kuh5q"><path d="M391,240.67a2.49,2.49,0,0,0,2.38-2.2l4.62-49.8a1.71,1.71,0,0,0,0-.61,1.46,1.46,0,0,0-1.5-1.13H318.64a2.48,2.48,0,0,0-2.37,2.2l-4.62,49.8a1.61,1.61,0,0,0,.38,1.26,1.5,1.5,0,0,0,1.16.48Z" style="fill: rgb(255, 255, 255); opacity: 0.6; isolation: isolate; transform-origin: 354.832px 213.8px;" class="animable"></path></g><path d="M336.91,227.48s-1.58-27.84,5.28-34.2,16.1-4.51,21-1.11,10.28,12.23,5.4,38.47Z" style="fill: rgb(38, 50, 56); transform-origin: 353.632px 209.85px;" id="el4dm226hwfj7" class="animable"></path><path d="M368.41,240.67a.5.5,0,0,1,0-.13q.89-2.85,2-6.15c.55-1.67,1.14-3.44,1.8-5.31a84.82,84.82,0,0,0-12-2.89,92,92,0,0,0-12.94-1.36c-5.61-.05-12.05.58-12.05.58s-.92.22-1.49,6.17c-.2,2.14-.4,5.11-.51,9.09Z" style="fill: rgb(255, 162, 52); transform-origin: 352.715px 232.749px;" id="elgof81wlgeki" class="animable"></path><path d="M368.41,240.67a.5.5,0,0,1,0-.13q.89-2.85,2-6.15c.55-1.67,1.14-3.44,1.8-5.31a84.82,84.82,0,0,0-12-2.89,92,92,0,0,0-12.94-1.36c-5.61-.05-12.05.58-12.05.58s-.92.22-1.49,6.17c-.18,1.92-.35,5-.44,9.09Z" style="fill: rgb(255, 162, 52); transform-origin: 352.75px 232.749px;" id="el8l94plfb9i9" class="animable"></path><g id="elil39e2n3cva"><g style="opacity: 0.2; isolation: isolate; transform-origin: 352.715px 232.749px;" class="animable"><path d="M368.41,240.67a.5.5,0,0,1,0-.13q.89-2.85,2-6.15c.55-1.67,1.14-3.44,1.8-5.31a84.82,84.82,0,0,0-12-2.89,92,92,0,0,0-12.94-1.36c-5.61-.05-12.05.58-12.05.58s-.92.22-1.49,6.17c-.2,2.14-.4,5.11-.51,9.09Z" id="elcx37m0b7hv5" class="animable" style="transform-origin: 352.715px 232.749px;"></path><path d="M368.41,240.67a.5.5,0,0,1,0-.13q.89-2.85,2-6.15c.55-1.67,1.14-3.44,1.8-5.31a84.82,84.82,0,0,0-12-2.89,92,92,0,0,0-12.94-1.36c-5.61-.05-12.05.58-12.05.58s-.92.22-1.49,6.17c-.18,1.92-.35,5-.44,9.09Z" id="el7c07hlps2b3" class="animable" style="transform-origin: 352.75px 232.749px;"></path></g></g><path d="M334.67,240.67h0l-.5-8.26-.43-7c-1.72.34-6.29,8.17-10.1,15.26Z" style="fill: rgb(255, 255, 255); transform-origin: 329.155px 233.04px;" id="elkib1swfqv69" class="animable"></path><g id="el0hamlzyimv9f"><path d="M334.67,240.67h0l-.5-8.26a33.69,33.69,0,0,0-5.09,8.27Z" style="opacity: 0.2; isolation: isolate; transform-origin: 331.875px 236.545px;" class="animable"></path></g><path d="M377.19,240.67c-3.06-8.95-4.95-11.59-4.95-11.59l-4.11,11.59Z" style="fill: rgb(255, 255, 255); transform-origin: 372.66px 234.875px;" id="el2npz7w6302h" class="animable"></path><path d="M349.7,231.19c7.1-.91,9.24-3.94,9.24-3.94-4.51-4.25-.76-11.62-.76-11.62l-8.55,1.59a25.33,25.33,0,0,1,.33,3.6c.06,5.19-2.28,5.25-2.28,5.25C346.18,228.88,349.7,231.19,349.7,231.19Z" style="fill: rgb(238, 193, 187); transform-origin: 353.124px 223.41px;" id="elw8nkcph4kio" class="animable"></path><g id="elvb2ipa4v98"><path d="M349.63,217.22a25.33,25.33,0,0,1,.33,3.6c5.78,0,8.22-5.19,8.22-5.19Z" style="opacity: 0.2; isolation: isolate; transform-origin: 353.905px 218.225px;" class="animable"></path></g><path d="M354.35,193.31c-7.43-.4-10,3.45-11,11.08-1.2,9.53.55,16.45,10,14.91C366.07,217.22,366.7,194,354.35,193.31Z" style="fill: rgb(238, 193, 187); transform-origin: 353.139px 206.398px;" id="elq454xnw8fpk" class="animable"></path><path d="M348.17,204.23a15.47,15.47,0,0,1-2.33,3,2.06,2.06,0,0,0,1.91,1Z" style="fill: rgb(212, 130, 125); transform-origin: 347.005px 206.232px;" id="elwthliz32hfk" class="animable"></path><path d="M353.11,198.75a3.86,3.86,0,0,1,3.16,1.3" style="fill: none; stroke: rgb(38, 50, 56); stroke-linecap: round; stroke-linejoin: round; stroke-width: 0.72468px; transform-origin: 354.69px 199.396px;" id="elnw5daro174b" class="animable"></path><path d="M347.73,198.14a3.49,3.49,0,0,0-3,.44" style="fill: none; stroke: rgb(38, 50, 56); stroke-linecap: round; stroke-linejoin: round; stroke-width: 0.72468px; transform-origin: 346.23px 198.28px;" id="el4verh88cbok" class="animable"></path><path d="M348.68,211.13a18.6,18.6,0,0,1,.72,2.63l.48,0c2.18-.1,3.16-.86,3.58-1.68a2.71,2.71,0,0,0,.28-1.3,2.6,2.6,0,0,0-.09-.76,10,10,0,0,1-4.23,1.08C349,211.13,348.68,211.13,348.68,211.13Z" style="fill: rgb(38, 50, 56); transform-origin: 351.211px 211.89px;" id="el49ecqrunx08" class="animable"></path><path d="M349.42,211.08l.23.77c2.05-.1,3.48-.44,4.09-1.09a2.6,2.6,0,0,0-.09-.76A10,10,0,0,1,349.42,211.08Z" style="fill: rgb(255, 255, 255); transform-origin: 351.581px 210.925px;" id="elbjaeiy4o2f7" class="animable"></path><path d="M349.88,213.74c2.18-.1,3.16-.86,3.58-1.68a6.87,6.87,0,0,0-2.39.59A2.66,2.66,0,0,0,349.88,213.74Z" style="fill: rgb(222, 87, 83); transform-origin: 351.67px 212.9px;" id="el9v9zxe97nj" class="animable"></path><path d="M361.79,206.29s-3.14-6.3-2.36-11c0,0-14.4-6.82-15.94,8.09,0,0-.71-13.35,12.08-12.95s11.72,19.09,4.81,24.3C360.38,214.74,363.73,210.22,361.79,206.29Z" style="fill: rgb(38, 50, 56); transform-origin: 354.456px 202.576px;" id="el3cyv84zzeyz" class="animable"></path><path d="M360.49,207.79a3.28,3.28,0,0,1,3.67-2.79c2.29.38,3.13,5.17-2.66,6C360.67,211.11,360.25,210.28,360.49,207.79Z" style="fill: rgb(238, 193, 187); transform-origin: 363.161px 207.991px;" id="elzcls4wl28te" class="animable"></path><path d="M351.21,203.94s1.84-1.61,3.24-.29A16.32,16.32,0,0,1,351.21,203.94Z" style="fill: rgb(38, 50, 56); transform-origin: 352.83px 203.536px;" id="eldlgiyrlkzqe" class="animable"></path><path d="M347.7,203.85s-1.67-1.78-3.2-.61A16.84,16.84,0,0,0,347.7,203.85Z" style="fill: rgb(38, 50, 56); transform-origin: 346.1px 203.346px;" id="elhcxvgwhoix5" class="animable"></path><path d="M365.53,228s-8.35,6.77-16.11,6.66-10.5-8.85-10.5-8.85S351,222.29,365.53,228Z" style="fill: rgb(238, 193, 187); transform-origin: 352.225px 229.699px;" id="elmcinagx4tuj" class="animable"></path><path d="M369.63,240.67c.75-4,1.61-8,2.6-11.59l-7.41-2.32A53.14,53.14,0,0,0,360,240.67Z" style="fill: rgb(255, 255, 255); transform-origin: 366.115px 233.715px;" id="elf83p324nkmt" class="animable"></path><path d="M338.74,240.67c.89-7.32.95-15.84.95-15.84l-5.95.58c-1.47,4-2.25,9.52-2.63,15.26Z" style="fill: rgb(255, 255, 255); transform-origin: 335.4px 232.75px;" id="el2y5wk9iz048" class="animable"></path><path d="M351.21,191.61a10,10,0,0,0-8.83,7.45,11.4,11.4,0,0,1,7.24-1.49,18.75,18.75,0,0,1,1.59-2.7,8.58,8.58,0,0,0-.87,2.77,25.92,25.92,0,0,1,4,.77,9.65,9.65,0,0,1,1.37-2,7.33,7.33,0,0,0-.45,2.3,27.42,27.42,0,0,1,2.93,1.05,13.1,13.1,0,0,1,2.24-5.14S358.55,190.93,351.21,191.61Z" style="fill: rgb(38, 50, 56); transform-origin: 351.405px 195.643px;" id="elpdmgtw0krc" class="animable"></path><path d="M361.86,209.85a.86.86,0,0,1-.07-.1,1.88,1.88,0,0,1-.21-1.19c.11-.87,1.41-3,2.42-1.76a1.67,1.67,0,0,1,.3,1.12,3.5,3.5,0,0,1-.43,1.55,1.47,1.47,0,0,1-1.06.84A1.08,1.08,0,0,1,361.86,209.85Z" style="fill: rgb(255, 162, 52); transform-origin: 362.933px 208.367px;" id="elmt604hus2r" class="animable"></path><g id="eleowb7b9v2mf"><path d="M361.86,209.85a.86.86,0,0,1-.07-.1,1.88,1.88,0,0,1-.21-1.19c.11-.87,1.41-3,2.42-1.76a1.67,1.67,0,0,1,.3,1.12,3.5,3.5,0,0,1-.43,1.55,1.47,1.47,0,0,1-1.06.84A1.08,1.08,0,0,1,361.86,209.85Z" style="opacity: 0.2; isolation: isolate; transform-origin: 362.933px 208.367px;" class="animable"></path></g><path d="M362,208.48s.89-1.88,1.49-1.53.36,2-.22,2.32a1.76,1.76,0,0,0-.77.94s-2.47,3-3.12,2.69v-.84A8,8,0,0,0,362,208.48Z" style="fill: rgb(255, 162, 52); transform-origin: 361.609px 209.915px;" id="elg16su5apipd" class="animable"></path><polygon points="346.24 418.16 352.37 418.16 363.38 264.92 355.25 264.92 346.24 418.16" style="fill: rgb(38, 50, 56); transform-origin: 354.81px 341.54px;" id="el7womcv3kd3e" class="animable"></polygon><g id="eld39x3f1v6n"><polygon points="346.24 418.16 352.37 418.16 362.84 272.53 363.38 265.16 355.25 265.16 354.81 272.53 346.24 418.16" style="fill: rgb(255, 255, 255); opacity: 0.4; isolation: isolate; transform-origin: 354.81px 341.66px;" class="animable"></polygon></g><g id="elq34kpym1qj"><polygon points="354.81 272.16 362.84 272.16 363.38 265.16 355.25 265.16 354.81 272.16" style="opacity: 0.2; isolation: isolate; transform-origin: 359.095px 268.66px;" class="animable"></polygon></g><polygon points="301.28 418.16 307.41 418.16 308.41 264.92 300.28 264.92 301.28 418.16" style="fill: rgb(38, 50, 56); transform-origin: 304.345px 341.54px;" id="el1rs3eski4h6" class="animable"></polygon><g id="ele0gd55sl0vi"><polygon points="300.28 265.16 300.44 289.89 301.28 418.16 307.41 418.16 308.25 289.89 308.41 265.16 300.28 265.16" style="fill: rgb(255, 255, 255); opacity: 0.5; isolation: isolate; transform-origin: 304.345px 341.66px;" class="animable"></polygon></g><g id="el22tr1vzvr4p"><polygon points="300.28 265.16 300.44 290.16 308.25 290.16 308.41 265.16 300.28 265.16" style="opacity: 0.2; isolation: isolate; transform-origin: 304.345px 277.66px;" class="animable"></polygon></g><polygon points="236.24 418.16 242.37 418.16 253.38 264.92 245.25 264.92 236.24 418.16" style="fill: rgb(38, 50, 56); transform-origin: 244.81px 341.54px;" id="el8i7ugy86l8v" class="animable"></polygon><g id="el5rho461agpw"><polygon points="236.24 418.16 242.37 418.16 252.84 272.53 253.38 265.16 245.25 265.16 244.81 272.53 236.24 418.16" style="fill: rgb(255, 255, 255); opacity: 0.5; isolation: isolate; transform-origin: 244.81px 341.66px;" class="animable"></polygon></g><g id="elvbc70r8q4d"><polygon points="244.81 272.16 252.84 272.16 253.38 265.16 245.25 265.16 244.81 272.16" style="opacity: 0.2; isolation: isolate; transform-origin: 249.095px 268.66px;" class="animable"></polygon></g><polygon points="416.32 418.16 422.45 418.16 413.45 264.92 405.32 264.92 416.32 418.16" style="fill: rgb(38, 50, 56); transform-origin: 413.885px 341.54px;" id="el630uxc8fbz4" class="animable"></polygon><g id="eluehvoxqw5rj"><polygon points="405.32 265.16 405.86 272.53 416.33 418.16 422.45 418.16 413.89 272.53 413.45 265.16 405.32 265.16" style="fill: rgb(255, 255, 255); opacity: 0.5; isolation: isolate; transform-origin: 413.885px 341.66px;" class="animable"></polygon></g><g id="eljvzgo9u61r"><polygon points="413.45 265.16 405.32 265.16 405.86 272.16 413.89 272.16 413.45 265.16" style="opacity: 0.2; isolation: isolate; transform-origin: 409.605px 268.66px;" class="animable"></polygon></g><g id="elvlymqe8xml"><path d="M241,261.08H417.73a2.16,2.16,0,0,1,2.16,2.16v5.51a0,0,0,0,1,0,0H238.81a0,0,0,0,1,0,0v-5.51A2.16,2.16,0,0,1,241,261.08Z" style="fill: rgb(255, 162, 52); transform-origin: 329.35px 264.915px; transform: rotate(180deg);" class="animable"></path></g><g id="el2sc8yvt874y"><path d="M241,261.08H417.73a2.16,2.16,0,0,1,2.16,2.16v5.51a0,0,0,0,1,0,0H238.81a0,0,0,0,1,0,0v-5.51A2.16,2.16,0,0,1,241,261.08Z" style="fill: rgb(255, 255, 255); opacity: 0.6; isolation: isolate; transform-origin: 329.35px 264.915px; transform: rotate(180deg);" class="animable"></path></g><g id="elj55euhkry5e"><rect x="238.81" y="261.08" width="181.08" height="3.84" style="opacity: 0.2; isolation: isolate; transform-origin: 329.35px 263px; transform: rotate(180deg);" class="animable"></rect></g><path d="M235,262.08H423.69a2.16,2.16,0,0,0,2.16-2.16h0a2.17,2.17,0,0,0-2.16-2.17H235a2.17,2.17,0,0,0-2.16,2.17h0A2.16,2.16,0,0,0,235,262.08Z" style="fill: rgb(255, 162, 52); transform-origin: 329.345px 259.915px;" id="elxosagcxsnm" class="animable"></path><g id="elcdrftzoioq"><path d="M235,262.08H423.69a2.16,2.16,0,0,0,2.16-2.16h0a2.17,2.17,0,0,0-2.16-2.17H235a2.17,2.17,0,0,0-2.16,2.17h0A2.16,2.16,0,0,0,235,262.08Z" style="fill: rgb(255, 255, 255); opacity: 0.6; isolation: isolate; transform-origin: 329.345px 259.915px;" class="animable"></path></g><polygon points="346.31 257.75 345.32 254.03 304.77 254.03 286.1 255.89 285.39 257.75 346.31 257.75" style="fill: rgb(38, 50, 56); transform-origin: 315.85px 255.89px;" id="eljt6kxc5jyuj" class="animable"></polygon><g id="elnjsyjsz2vtc"><polygon points="304.77 254.03 304.77 257.75 346.31 257.75 345.32 254.03 304.77 254.03" style="opacity: 0.4; isolation: isolate; transform-origin: 325.54px 255.89px;" class="animable"></polygon></g><path d="M421.18,252.31a12.36,12.36,0,0,1-1,5.44h-43v-1h.87v-8.85h-.87v-1h43A12.7,12.7,0,0,1,421.18,252.31Z" style="fill: rgb(38, 50, 56); transform-origin: 399.186px 252.325px;" id="el5ly7077b9kc" class="animable"></path><g id="el6j23j0doism"><path d="M421.18,252.31a12.36,12.36,0,0,1-1,5.44h-43v-1h.87v-8.85h-.87v-1h43A12.7,12.7,0,0,1,421.18,252.31Z" style="fill: rgb(255, 255, 255); opacity: 0.2; isolation: isolate; transform-origin: 399.186px 252.325px;" class="animable"></path></g><g id="eljahc1ktycpd"><path d="M398.18,252.31a12.36,12.36,0,0,1-1,5.44h-20v-1h.87v-8.85h-.87v-1h20A12.7,12.7,0,0,1,398.18,252.31Z" style="opacity: 0.2; isolation: isolate; transform-origin: 387.686px 252.325px;" class="animable"></path></g><g id="elptk1678hms"><path d="M396.06,252.31a10.06,10.06,0,0,1-.81,4.42H378.06v-8.85h17.19A10.35,10.35,0,0,1,396.06,252.31Z" style="fill: rgb(255, 255, 255); opacity: 0.8; isolation: isolate; transform-origin: 387.065px 252.305px;" class="animable"></path></g><g id="elp8b3es90bp"><path d="M414.18,252.31a12.36,12.36,0,0,1-1,5.44h-8a12.36,12.36,0,0,0,1-5.44,12.7,12.7,0,0,0-1-5.45h8A12.7,12.7,0,0,1,414.18,252.31Z" style="fill: rgb(255, 255, 255); opacity: 0.6; isolation: isolate; transform-origin: 409.686px 252.305px;" class="animable"></path></g><path d="M425,241.42a12.36,12.36,0,0,1-1,5.44H381v-1h.87V237H381v-1h43A12.7,12.7,0,0,1,425,241.42Z" style="fill: rgb(255, 162, 52); transform-origin: 403.006px 241.43px;" id="eljehtiq5j7l" class="animable"></path><g id="elkfuc7sfpox"><path d="M402,241.42a12.36,12.36,0,0,1-1,5.44H381v-1h.87V237H381v-1h20A12.7,12.7,0,0,1,402,241.42Z" style="opacity: 0.2; isolation: isolate; transform-origin: 391.506px 241.43px;" class="animable"></path></g><g id="elv3mi5hjscn"><path d="M399.89,241.42a10.06,10.06,0,0,1-.81,4.42H381.89V237h17.19A10.35,10.35,0,0,1,399.89,241.42Z" style="fill: rgb(255, 255, 255); opacity: 0.8; isolation: isolate; transform-origin: 390.895px 241.42px;" class="animable"></path></g><g id="el0s7i39lp86zi"><path d="M418,241.42a12.36,12.36,0,0,1-1,5.44h-8a12.36,12.36,0,0,0,1-5.44,12.7,12.7,0,0,0-1-5.45h8A12.7,12.7,0,0,1,418,241.42Z" style="opacity: 0.2; isolation: isolate; transform-origin: 413.506px 241.415px;" class="animable"></path></g></g><g id="freepik--speech-bubble-2--inject-8" class="animable animator-active" style="transform-origin: 331.845px 151.935px;"><rect x="313.78" y="128.1" width="36.13" height="36.13" rx="3.03" style="fill: rgb(255, 162, 52); transform-origin: 331.845px 146.165px;" id="elo3svdq5sgb" class="animable"></rect><path d="M327.71,161s1.84,10.18,15.29,14.77c0,0-7.64-7.38-7.64-14.77Z" style="fill: rgb(255, 162, 52); transform-origin: 335.355px 168.385px;" id="elvx67mya1e9" class="animable"></path><line x1="323.67" y1="139.4" x2="340.03" y2="139.4" style="fill: none; stroke: rgb(255, 255, 255); stroke-miterlimit: 10; stroke-width: 2px; transform-origin: 331.85px 139.4px;" id="el925v63kg5on" class="animable"></line><path d="M329.11,135.44a28,28,0,0,0,4.26,17.93" style="fill: none; stroke: rgb(255, 255, 255); stroke-miterlimit: 10; stroke-width: 2px; transform-origin: 331.167px 144.405px;" id="elip4t62ee21o" class="animable"></path><path d="M335.69,152.26s4.34-.73,3.26-4.69c-.95-3.51-10.68-5.39-13.15.73-1.9,4.68,2.69,3.91,5.36,2.44,4.66-2.58,5.62-8.44,5.62-8.44" style="fill: none; stroke: rgb(255, 255, 255); stroke-miterlimit: 10; stroke-width: 2px; transform-origin: 332.237px 147.28px;" id="eleevkzghun9" class="animable"></path></g><g id="freepik--speech-bubble-1--inject-8" class="animable animator-active" style="transform-origin: 260.355px 151.935px;"><path d="M256.19,161s1.84,10.18,15.29,14.77c0,0-7.64-7.38-7.64-14.77Z" style="fill: rgb(255, 162, 52); transform-origin: 263.835px 168.385px;" id="elqelx79mcj1" class="animable"></path><g id="elvtbtt4btkec"><path d="M256.19,161s1.84,10.18,15.29,14.77c0,0-7.64-7.38-7.64-14.77Z" style="fill: rgb(255, 255, 255); opacity: 0.6; isolation: isolate; transform-origin: 263.835px 168.385px;" class="animable"></path></g><rect x="242.29" y="128.1" width="36.13" height="36.13" rx="3.03" style="fill: rgb(255, 162, 52); transform-origin: 260.355px 146.165px;" id="eld2rcbr40x4v" class="animable"></rect><g id="elz23ip78s9m"><rect x="242.29" y="128.1" width="36.13" height="36.13" rx="3.03" style="fill: rgb(255, 255, 255); opacity: 0.6; isolation: isolate; transform-origin: 260.355px 146.165px;" class="animable"></rect></g><path d="M264,152.26l-1.22-3.43h-4.73l-1.22,3.43h-2.7l5.06-14.21h2.45l5.06,14.21Zm-3.59-10.11L259,146.31h2.95Z" style="fill: rgb(255, 162, 52); transform-origin: 260.415px 145.155px;" id="el3luu5tzr3pm" class="animable"></path></g><g id="freepik--Character--inject-8" class="animable" style="transform-origin: 286.821px 294.943px;"><g id="freepik--group--inject-8" class="animable" style="transform-origin: 286.821px 294.943px;"><path d="M348.69,240.58,336.35,252l1.71,1.39L350,242a1,1,0,0,0,0-1.38h0A1,1,0,0,0,348.69,240.58Z" style="fill: rgb(255, 162, 52); transform-origin: 343.313px 246.873px;" id="elr98ycf7ve9s" class="animable"></path><path d="M331.32,249.87l7.25-3.3s6.07-1.13,8.57-.57,8.05,8.09,7.92,9-9.61,3.17-9.82,3.17-4.31-2.33-4.31-2.33l-6.71,2.33Z" style="fill: rgb(228, 137, 123); transform-origin: 343.191px 252.007px;" id="el8b102pd7kaj" class="animable"></path><polygon points="268.53 407.94 276.49 406.85 277.6 387.91 269.64 389.01 268.53 407.94" style="fill: rgb(235, 179, 118); transform-origin: 273.065px 397.925px;" id="el63v6y5qq3e2" class="animable"></polygon><g id="el0r45uog5xym"><polygon points="269.64 389.01 277.6 387.92 276.96 398.75 269.02 399.44 269.64 389.01" style="opacity: 0.2; isolation: isolate; transform-origin: 273.31px 393.68px;" class="animable"></polygon></g><path d="M268.85,296.62l-2-12.17-44.66-2.67s-4.75,25.33-1.1,32.08c6.52,12.05,41.62,6,51.89,7.16-6.14,25.11-5.54,74.18-5.54,74.18l14.67,1.12s11.29-52.88,13.57-78C297.27,301.36,283.23,301.79,268.85,296.62Z" style="fill: rgb(255, 162, 52); transform-origin: 257.757px 339.05px;" id="el9pq0he5kfe9" class="animable"></path><polygon points="265.77 395.89 283.4 397.05 284.91 389.5 265.54 388.6 265.77 395.89" style="fill: rgb(255, 162, 52); transform-origin: 275.225px 392.825px;" id="elna4paran0n" class="animable"></polygon><g id="eltmgj42bi2pi"><polygon points="265.77 395.89 283.4 397.05 284.91 389.5 265.54 388.6 265.77 395.89" style="fill: rgb(255, 255, 255); opacity: 0.2; transform-origin: 275.225px 392.825px;" class="animable"></polygon></g><path d="M277.09,405.89l-9-.56a.56.56,0,0,0-.62.5h0l-.88,7.1a1.43,1.43,0,0,0,1.31,1.51c3.15.14,4.65.05,8.62.27a74.45,74.45,0,0,0,10.57.34c3.36-.33,2.95-3.63,1.5-3.79-3.44-.39-8-2.92-10.14-4.83A2.23,2.23,0,0,0,277.09,405.89Z" style="fill: rgb(38, 50, 56); transform-origin: 278.127px 410.216px;" id="eltbpy3vzt2p" class="animable"></path><polygon points="286.9 407.87 294.92 408.46 299.95 390.17 291.94 389.59 286.9 407.87" style="fill: rgb(235, 179, 118); transform-origin: 293.425px 399.025px;" id="elk72hos7w9pc" class="animable"></polygon><path d="M296,408.82s0,0,0,.06h.07a10,10,0,0,0,2,.84,2.21,2.21,0,0,0,1.56,0,1,1,0,0,0,.5-.95.73.73,0,0,0-.27-.63,3.24,3.24,0,0,0-2.25-.06,3,3,0,0,0,1.19-1.63.7.7,0,0,0-.49-.72.9.9,0,0,0-.8,0c-1,.53-1.36,2.78-1.39,2.9h0a.59.59,0,0,1-.13,0A.14.14,0,0,0,296,408.82Zm.59-.45-.18.06c.19-.74.6-1.95,1.18-2.26a.54.54,0,0,1,.43-.06l.09,0c.25.1.28.25.26.36C298.35,407,297.42,407.94,296.63,408.37Zm0,.42c1.06-.33,2.53-.61,3-.28a.32.32,0,0,1,.13.31.66.66,0,0,1-.3.61C299,409.68,298,409.44,296.66,408.79Z" style="fill: rgb(255, 162, 52); transform-origin: 298.045px 407.749px;" id="elvhzshpy057" class="animable"></path><g id="elap9n6gbl9qr"><polygon points="291.94 389.59 299.94 390.18 297.07 400.63 289.15 399.66 291.94 389.59" style="opacity: 0.2; isolation: isolate; transform-origin: 294.545px 395.11px;" class="animable"></polygon></g><path d="M302.66,399.34l-14.12-4.15s8.43-47.58,17-64.08c-.64-.21-1.49-.48-2.54-.79-1.89-.57-4.4-1.28-7.35-2.1-20.52-5.69-62.11-16.36-62.11-16.36l19-17.73s75.68,11.54,77.25,31.48C330.52,335.2,302.66,399.34,302.66,399.34Z" style="fill: rgb(255, 162, 52); transform-origin: 281.672px 346.735px;" id="elj7wplqkctkq" class="animable"></path><polygon points="286.72 395.51 303.72 400.31 306.77 393.24 288.01 388.33 286.72 395.51" style="fill: rgb(255, 162, 52); transform-origin: 296.745px 394.32px;" id="elkd3vo4w3iv8" class="animable"></polygon><g id="elqb38ikmipsn"><polygon points="286.72 395.51 303.72 400.31 306.77 393.24 288.01 388.33 286.72 395.51" style="fill: rgb(255, 255, 255); opacity: 0.2; transform-origin: 296.745px 394.32px;" class="animable"></polygon></g><path d="M295.71,407.65,287,405.22a.58.58,0,0,0-.72.37h0L284,412.36a1.41,1.41,0,0,0,1,1.74c3,.8,4.54,1,8.37,2.06a75.16,75.16,0,0,0,10.27,2.54c3.35.38,3.64-2.94,2.25-3.4-3.28-1.1-7.2-4.51-8.9-6.84A2.29,2.29,0,0,0,295.71,407.65Z" style="fill: rgb(38, 50, 56); transform-origin: 295.311px 411.962px;" id="elilge3knza2" class="animable"></path><path d="M277.29,406.87l.16,0s.18.06.21.08,0,0,0,0h.07a9.91,9.91,0,0,0,2.09.41,2.11,2.11,0,0,0,1.53-.3,1,1,0,0,0,.29-1,.73.73,0,0,0-.4-.56A3.34,3.34,0,0,0,279,406a2.81,2.81,0,0,0,.79-1.83.75.75,0,0,0-.68-.61,1.17,1.17,0,0,0-.89.21c-.84.72-1,3-1,3.13h0Zm.86-.46-.17.09a4.1,4.1,0,0,1,.68-2.46.56.56,0,0,1,.41-.15l.09,0c.27,0,.33.18.34.29A3.86,3.86,0,0,1,278.15,406.41Zm.11.39c1-.53,2.35-1.12,2.86-.88a.32.32,0,0,1,.19.27.69.69,0,0,1-.17.66C280.74,407.2,279.68,407.17,278.26,406.8Z" style="fill: rgb(255, 162, 52); transform-origin: 279.448px 405.47px;" id="el1x7uf0rl96u" class="animable"></path><path d="M301.49,203.12c-.19.42-.4.84-.62,1.23a13,13,0,0,1-5.58,5.3,13.16,13.16,0,0,1-1.84.75A11.7,11.7,0,0,1,280,205.87c-3.83-5.44-2.79-10.79-1.77-20a12.66,12.66,0,0,1,19.33-9.54C305.91,181.5,304.85,195.26,301.49,203.12Z" style="fill: rgb(228, 137, 123); transform-origin: 290.635px 192.707px;" id="elc9qk2oq2a2" class="animable"></path><g id="elalyzcp2i48l"><path d="M295.29,209.65a13.16,13.16,0,0,1-1.84.75,11.81,11.81,0,0,1-10.05-1.25,13.77,13.77,0,0,1,2.15-2.81A18.23,18.23,0,0,1,295.29,209.65Z" style="opacity: 0.2; isolation: isolate; transform-origin: 289.345px 208.669px;" class="animable"></path></g><path d="M271.19,212.09c1.58,5.94,11.77,10.7,11.77,10.7s6.87,2.18,6.82-.44c-3.07-2.79-3.7-5.47-3.06-8a12.11,12.11,0,0,1,2.19-4.16,24.76,24.76,0,0,1,1.71-2l-6-16.05C282.45,198.81,277.58,210.41,271.19,212.09Z" style="fill: rgb(228, 137, 123); transform-origin: 280.905px 207.89px;" id="el7jjacdtsie7" class="animable"></path><path d="M300.19,183s2.58,8.69-6.33,14.93c0,0-3.74,8-5.83,9s-6.81.4-8.4,0-9.82-7.22-7.44-23.26,15.84-11,15.84-11,4.6-4,13.15,1C308.32,177.81,306.92,185.55,300.19,183Z" style="fill: rgb(38, 50, 56); transform-origin: 288.843px 189.316px;" id="el0oqdujcmg73i" class="animable"></path><path d="M292.65,193.77a6,6,0,0,0,2.35,4.55c1.72,1.1,3.38-1.3,3.57-4.08.16-2.47-.52-6.1-2.58-6S292.42,191.21,292.65,193.77Z" style="fill: rgb(228, 137, 123); transform-origin: 295.61px 193.415px;" id="elw4iih59nlo" class="animable"></path><path d="M301.29,223.69s-12.64-14.16-29.53-12.7S238,225.5,229.53,246s-10.95,51.49-10.95,51.49,27.33,7.83,55.12.69A295.73,295.73,0,0,1,301.29,223.69Z" style="fill: rgb(38, 50, 56); transform-origin: 259.935px 256.034px;" id="el9ggkzlp6b86" class="animable"></path><path d="M301.29,223.69c4.27,4.43,16.46,24.74,19.93,25.5s8.52-2.36,12.47-1.17,8,4.79,7.1,7.1-10.2,8.46-21.73,8.79c-9.87.29-30.67-24.29-30.67-24.29C288.39,230.12,301.29,223.69,301.29,223.69Z" style="fill: rgb(38, 50, 56); transform-origin: 314.653px 243.801px;" id="ele8x1p5fmxiu" class="animable"></path><path d="M301.82,206.84l0-1a1.77,1.77,0,0,0,1.71-1.88c0-1.49-3.7-4.71-6-6.39l.58-.81c.66.47,6.47,4.72,6.46,7.2A2.76,2.76,0,0,1,301.82,206.84Z" style="fill: rgb(38, 50, 56); transform-origin: 301.051px 201.8px;" id="el4l7zwy1f29t" class="animable"></path><path d="M301.24,193.42c0,4.14-2.42,7.5-5.39,7.5s-5.39-3.36-5.39-7.5,2.41-7.49,5.39-7.49S301.24,189.28,301.24,193.42Z" style="fill: rgb(255, 162, 52); transform-origin: 295.85px 193.425px;" id="eleollpe5xnhk" class="animable"></path><g id="el02vlv2wfjglz"><path d="M301.24,193.42c0,4.14-2.42,7.5-5.39,7.5s-5.39-3.36-5.39-7.5,2.41-7.49,5.39-7.49S301.24,189.28,301.24,193.42Z" style="opacity: 0.2; isolation: isolate; transform-origin: 295.85px 193.425px;" class="animable"></path></g><ellipse cx="297.74" cy="193.42" rx="3.55" ry="4.94" style="fill: rgb(255, 162, 52); transform-origin: 297.74px 193.42px;" id="elqct2gpgf9hj" class="animable"></ellipse><path d="M299.43,189.84s.28-21.62-16-17.89c0,0,12.17,1.47,13,18.48Z" style="fill: rgb(255, 162, 52); transform-origin: 291.43px 180.974px;" id="elmiyn881oooo" class="animable"></path><g id="elznrtwolv9oi"><rect x="300.86" y="205.61" width="1.86" height="1.48" rx="0.51" style="fill: rgb(38, 50, 56); transform-origin: 301.79px 206.35px; transform: rotate(-9.81deg);" class="animable"></rect></g></g></g><g id="freepik--Chair--inject-8" class="animable" style="transform-origin: 236.5px 326.877px;"><path d="M211.4,317.18h66.92a5,5,0,0,1,5,5v6.69a0,0,0,0,1,0,0H206.4a0,0,0,0,1,0,0v-6.69a5,5,0,0,1,5-5Z" style="fill: rgb(255, 162, 52); transform-origin: 244.86px 323.025px;" id="elxyme9xnesx9" class="animable"></path><g id="el3g8pf9f10xm"><path d="M211.4,317.18h66.92a5,5,0,0,1,5,5v6.69a0,0,0,0,1,0,0H206.4a0,0,0,0,1,0,0v-6.69a5,5,0,0,1,5-5Z" style="opacity: 0.3; isolation: isolate; transform-origin: 244.86px 323.025px;" class="animable"></path></g><g id="el97bwg392dq"><rect x="183.92" y="232.49" width="56.66" height="39.92" rx="14.58" style="fill: rgb(255, 162, 52); transform-origin: 212.25px 252.45px; transform: rotate(180deg);" class="animable"></rect></g><g id="el50131tvnqi9"><g style="opacity: 0.3; isolation: isolate; transform-origin: 212.25px 252.45px;" class="animable"><g id="elaarn727kpt6"><rect x="183.92" y="232.49" width="56.66" height="39.92" rx="14.58" class="animable" style="transform-origin: 212.25px 252.45px; transform: rotate(180deg);"></rect></g></g></g><path d="M209.33,395.42l28.82-2.83V352.1h11.42v40.48l28.92,2.84a5.61,5.61,0,0,1,5.07,5.58v4.33H204.27V401A5.61,5.61,0,0,1,209.33,395.42Z" style="fill: rgb(38, 50, 56); transform-origin: 243.915px 378.715px;" id="el876mcb702yd" class="animable"></path><g id="el9fxxxwohby"><path d="M209.33,395.42l28.82-2.83V352.1h11.42v40.48l28.92,2.84a5.61,5.61,0,0,1,5.07,5.58v4.33H204.27V401A5.61,5.61,0,0,1,209.33,395.42Z" style="fill: rgb(255, 255, 255); opacity: 0.2; isolation: isolate; transform-origin: 243.915px 378.715px;" class="animable"></path></g><g id="elwjum90u9kc"><circle cx="280.51" cy="410.7" r="7.47" style="fill: rgb(38, 50, 56); transform-origin: 280.51px 410.7px; transform: rotate(-9.22deg);" class="animable"></circle></g><g id="el0bw847vhflrl"><circle cx="207.32" cy="410.7" r="7.47" style="fill: rgb(38, 50, 56); transform-origin: 207.32px 410.7px; transform: rotate(-45deg);" class="animable"></circle></g><g id="el5dzw4g7znas"><path d="M240.31,324.73h7.09a4.13,4.13,0,0,1,4.13,4.13V360.8a0,0,0,0,1,0,0H236.18a0,0,0,0,1,0,0V328.87A4.13,4.13,0,0,1,240.31,324.73Z" style="fill: rgb(38, 50, 56); transform-origin: 243.855px 342.765px; transform: rotate(180deg);" class="animable"></path></g><g id="elh35anfs9dxe"><path d="M240.31,324.73h7.09a4.13,4.13,0,0,1,4.13,4.13V360.8a0,0,0,0,1,0,0H236.18a0,0,0,0,1,0,0V328.87A4.13,4.13,0,0,1,240.31,324.73Z" style="fill: rgb(255, 255, 255); opacity: 0.3; isolation: isolate; transform-origin: 243.855px 342.765px; transform: rotate(180deg);" class="animable"></path></g><path d="M216.56,261.44s-2.18,54,12.85,63.29H212.25s-13.3-18.39-9.54-63.29Z" style="fill: rgb(38, 50, 56); transform-origin: 215.725px 293.085px;" id="elwi3jidn4xo" class="animable"></path><g id="elrr60dru3bu"><path d="M216.56,261.44s-2.18,54,12.85,63.29H212.25s-13.3-18.39-9.54-63.29Z" style="fill: rgb(255, 255, 255); opacity: 0.3; isolation: isolate; transform-origin: 215.725px 293.085px;" class="animable"></path></g><rect x="203.2" y="323.03" width="83.33" height="5.84" rx="2.01" style="fill: rgb(38, 50, 56); transform-origin: 244.865px 325.95px;" id="eluhtfpge09eq" class="animable"></rect><g id="elw77cfpjhso"><rect x="203.2" y="323.03" width="83.33" height="5.84" rx="2.01" style="fill: rgb(255, 255, 255); opacity: 0.6; isolation: isolate; transform-origin: 244.865px 325.95px;" class="animable"></rect></g><rect x="193.01" y="244.62" width="32.01" height="22.55" rx="8.24" style="fill: rgb(38, 50, 56); transform-origin: 209.015px 255.895px;" id="elgh2rdgsnddc" class="animable"></rect><g id="el40ayn76zuur"><rect x="193.01" y="244.62" width="32.01" height="22.55" rx="8.24" style="fill: rgb(255, 255, 255); opacity: 0.2; isolation: isolate; transform-origin: 209.015px 255.895px;" class="animable"></rect></g></g><defs>     <filter id="active" height="200%">         <feMorphology in="SourceAlpha" result="DILATED" operator="dilate" radius="2"></feMorphology>                <feFlood flood-color="#32DFEC" flood-opacity="1" result="PINK"></feFlood>        <feComposite in="PINK" in2="DILATED" operator="in" result="OUTLINE"></feComposite>        <feMerge>            <feMergeNode in="OUTLINE"></feMergeNode>            <feMergeNode in="SourceGraphic"></feMergeNode>        </feMerge>    </filter>    <filter id="hover" height="200%">        <feMorphology in="SourceAlpha" result="DILATED" operator="dilate" radius="2"></feMorphology>                <feFlood flood-color="#ff0000" flood-opacity="0.5" result="PINK"></feFlood>        <feComposite in="PINK" in2="DILATED" operator="in" result="OUTLINE"></feComposite>        <feMerge>            <feMergeNode in="OUTLINE"></feMergeNode>            <feMergeNode in="SourceGraphic"></feMergeNode>        </feMerge>            <feColorMatrix type="matrix" values="0   0   0   0   0                0   1   0   0   0                0   0   0   0   0                0   0   0   1   0 "></feColorMatrix>    </filter></defs></svg>